<?xml version="1.0" encoding="iso-8859-1"?>
<!-- Uploaded to: SVG Repo, www.svgrepo.com, Generator: SVG Repo Mixer Tools -->
<svg fill="#000000" height="800px" width="800px" version="1.1" id="Layer_1" xmlns="http://www.w3.org/2000/svg" xmlns:xlink="http://www.w3.org/1999/xlink" 
	 viewBox="0 0 512.002 512.002" xml:space="preserve">
<g>
	<g>
		<g>
			<path d="M309.701,65.769c1.664,1.664,3.849,2.5,6.033,2.5c2.185,0,4.369-0.836,6.033-2.5l25.6-25.6
				c3.337-3.337,3.337-8.73,0-12.066l-25.6-25.6c-3.337-3.336-8.73-3.336-12.066,0l-25.6,25.6c-3.337,3.337-3.337,8.73,0,12.066
				L309.701,65.769z M315.734,20.602l13.534,13.534l-13.534,13.534l-13.534-13.534L315.734,20.602z"/>
			<path d="M401.068,153.602c-52.804,0-72.909,33.331-75.597,38.289l-33.903,50.842c-0.179,0.282-0.367,0.597-0.521,0.896
				c-0.145,0.29-15.283,29.44-43.58,29.44c-17.34,0-26.641-4.736-31.206-8.346c12.041-13.645,39.74-48.998,39.74-85.521
				c0-58.778-28.706-93.867-76.8-93.867c-51.046,0-96.802,16.461-125.5,45.167c-2.603,2.594-3.243,6.562-1.604,9.847l25.6,51.2
				c1.058,2.125,2.97,3.703,5.248,4.369c2.27,0.674,4.736,0.35,6.775-0.862c0.401-0.239,41.387-24.388,89.481-24.388
				c11.861,0,20.292,3.541,23.74,9.984c3.738,6.98,1.775,17.425-5.24,27.947c-14.174,21.265-35.012,30.336-69.7,30.336
				c-2.628,0-5.111,1.212-6.724,3.285c-1.621,2.065-2.193,4.77-1.553,7.322l17.067,68.267c0.956,3.789,4.361,6.46,8.277,6.46h34.133
				c0.384,0,0.802-0.026,1.186-0.085c0.222-0.017,23.27-3.012,37.726,9.591c8.158,7.117,12.288,18.278,12.288,33.161
				c0,45.577-56.294,59.733-76.8,59.733l-3.977,0.034c-28.109,0.435-93.926,1.357-132.864-138.854
				c-1.152-4.113-5.214-6.741-9.378-6.17c-4.233,0.58-7.381,4.19-7.381,8.457c0,2.219,1.852,221.867,162.133,221.867
				c83.746,0,128-44.262,128-128c0-32.401-6.596-55.168-11.913-68.267h11.913c1.544,0,37.888-0.222,57.233-19.567
				c8.781-8.781,47.701-63.164,52.292-69.606c0.367-0.546,9.079-13.227,27.008-13.227c15.753,0,34.133,20.113,34.133,76.8
				c0,40.286-32.845,85.333-76.8,85.333c-10.812,0-20.77-2.611-29.611-7.757c-4.07-2.372-9.301-0.99-11.665,3.081
				c-2.364,4.07-0.99,9.301,3.081,11.665c11.477,6.682,24.329,10.078,38.195,10.078c55.313,0,93.867-53.965,93.867-102.4
				c0-89.344-42.65-93.867-51.2-93.867c-27.443,0-40.747,20.113-41.079,20.642c-16.99,23.782-44.399,61.295-50.287,67.191
				c-14.319,14.319-44.877,14.566-45.167,14.566h-25.6c-3.132,0-5.999,1.732-7.492,4.489s-1.34,6.118,0.367,8.738
				c0.162,0.247,15.659,24.559,15.659,72.107c0,74.65-36.284,110.933-110.933,110.933c-59.605,0-102.076-33.86-126.234-100.651
				c-4.104-11.349-7.313-22.733-9.822-33.604c43.042,84.25,99.831,83.379,123.776,83.089l3.746-0.034
				c29.406,0,93.867-19.337,93.867-76.8c0-20.096-6.144-35.61-18.253-46.114c-18.97-16.452-45.841-14.157-50.551-13.619h-26.931
				l-12.877-51.499c34.389-1.988,57.173-13.824,73.045-37.632c10.726-16.085,12.945-32.666,6.084-45.474
				c-6.554-12.254-20.326-18.995-38.784-18.995c-40.226,0-74.974,14.839-90.163,22.451l-18.833-37.666
				c25.737-22.938,65.041-35.985,108.996-35.985c53.914,0,59.733,53.709,59.733,76.8c0,38.562-39.765,78.899-40.175,79.3
				c-2.586,2.603-3.234,6.562-1.596,9.847c1.118,2.227,12.006,21.786,50.304,21.786c36.924,0,55.987-33.476,58.556-38.323
				l33.877-50.807c0.196-0.299,0.375-0.606,0.529-0.922c0.154-0.29,15.241-29.414,60.638-29.414
				c87.33,0,93.867,54.059,93.867,136.533c0,57.045-19.763,153.6-93.867,153.6c-75.793,0-76.8-126.729-76.8-128
				c-0.008-4.71-3.823-8.533-8.533-8.533h-0.009c-4.71,0-8.525,3.823-8.525,8.533c0,5.922,1.067,145.067,93.867,145.067
				c76.629,0,110.933-85.717,110.933-170.667C512.001,223.166,503.647,153.602,401.068,153.602z"/>
			<path d="M341.334,145.069c88.414,0,124.629-43.998,126.131-45.875c2.492-3.115,2.492-7.535,0-10.658l-34.133-42.667
				c-1.434-1.792-3.524-2.927-5.803-3.157c-2.261-0.239-4.574,0.469-6.332,1.937c-0.478,0.401-49.374,40.687-96.93,40.687
				c-45.662,0-68.727-28.868-86.767-55.936c-2.159-3.243-6.238-4.599-9.907-3.319c-3.678,1.28-6.016,4.881-5.692,8.764
				C221.996,35.945,232.338,145.069,341.334,145.069z M324.268,102.402c42.957,0,84.838-27.426,100.975-39.313l24.149,30.182
				c-11.665,10.513-45.363,34.731-108.058,34.731c-52.975,0-78.72-29.346-91.128-55.364
				C266.864,88.587,290.373,102.402,324.268,102.402z"/>
		</g>
	</g>
</g>
</svg>