<?xml version="1.0" encoding="utf-8"?>
<!-- Generator: Adobe Illustrator 28.1.0, SVG Export Plug-In . SVG Version: 6.00 Build 0)  -->
<svg version="1.1" id="Layer_1" xmlns="http://www.w3.org/2000/svg" xmlns:xlink="http://www.w3.org/1999/xlink" x="0px" y="0px"
	 viewBox="0 0 800 800" style="enable-background:new 0 0 800 800;" xml:space="preserve">
<style type="text/css">
	.st0{fill:#FFFFFF;}
</style>
<g>
	<g>
		<g>
			<path class="st0" d="M483.9,102.8c2.6,2.6,6,3.9,9.4,3.9c3.4,0,6.8-1.3,9.4-3.9l40-40c5.2-5.2,5.2-13.6,0-18.9l-40-40
				c-5.2-5.2-13.6-5.2-18.9,0l-40,40c-5.2,5.2-5.2,13.6,0,18.9L483.9,102.8z M493.3,32.2l21.1,21.1l-21.1,21.1l-21.1-21.1
				L493.3,32.2z"/>
			<path class="st0" d="M626.7,240c-82.5,0-113.9,52.1-118.1,59.8l-53,79.4c-0.3,0.4-0.6,0.9-0.8,1.4c-0.2,0.5-23.9,46-68.1,46
				c-27.1,0-41.6-7.4-48.8-13C356.7,392.3,400,337.1,400,280c0-91.8-44.9-146.7-120-146.7c-79.8,0-151.3,25.7-196.1,70.6
				c-4.1,4.1-5.1,10.3-2.5,15.4l40,80c1.7,3.3,4.6,5.8,8.2,6.8c3.5,1.1,7.4,0.5,10.6-1.3c0.6-0.4,64.7-38.1,139.8-38.1
				c18.5,0,31.7,5.5,37.1,15.6c5.8,10.9,2.8,27.2-8.2,43.7c-22.1,33.2-54.7,47.4-108.9,47.4c-4.1,0-8,1.9-10.5,5.1
				c-2.5,3.2-3.4,7.5-2.4,11.4l26.7,106.7c1.5,5.9,6.8,10.1,12.9,10.1H280c0.6,0,1.3,0,1.9-0.1c0.3,0,36.4-4.7,58.9,15
				c12.7,11.1,19.2,28.6,19.2,51.8c0,71.2-88,93.3-120,93.3l-6.2,0.1c-43.9,0.7-146.8,2.1-207.6-217c-1.8-6.4-8.1-10.5-14.7-9.6
				C4.9,441,0,446.7,0,453.3C0,456.8,2.9,800,253.3,800c130.9,0,200-69.2,200-200c0-50.6-10.3-86.2-18.6-106.7h18.6
				c2.4,0,59.2-0.3,89.4-30.6c13.7-13.7,74.5-98.7,81.7-108.8c0.6-0.9,14.2-20.7,42.2-20.7c24.6,0,53.3,31.4,53.3,120
				c0,62.9-51.3,133.3-120,133.3c-16.9,0-32.5-4.1-46.3-12.1c-6.4-3.7-14.5-1.5-18.2,4.8c-3.7,6.4-1.5,14.5,4.8,18.2
				c17.9,10.4,38,15.7,59.7,15.7c86.4,0,146.7-84.3,146.7-160c0-139.6-66.6-146.7-80-146.7c-42.9,0-63.7,31.4-64.2,32.3
				c-26.5,37.2-69.4,95.8-78.6,105c-22.4,22.4-70.1,22.8-70.6,22.8h-40c-4.9,0-9.4,2.7-11.7,7s-2.1,9.6,0.6,13.7
				c0.3,0.4,24.5,38.4,24.5,112.7c0,116.6-56.7,173.3-173.3,173.3c-93.1,0-159.5-52.9-197.2-157.3c-6.4-17.7-11.4-35.5-15.3-52.5
				c67.3,131.6,156,130.3,193.4,129.8l5.9-0.1c45.9,0,146.7-30.2,146.7-120c0-31.4-9.6-55.6-28.5-72.1c-29.6-25.7-71.6-22.1-79-21.3
				h-42.1L217,399.5c53.7-3.1,89.3-21.6,114.1-58.8c16.8-25.1,20.2-51,9.5-71.1C330.4,250.5,308.8,240,280,240
				c-62.9,0-117.1,23.2-140.9,35.1l-29.4-58.9C149.9,180.4,211.3,160,280,160c84.2,0,93.3,83.9,93.3,120
				c0,60.3-62.1,123.3-62.8,123.9c-4,4.1-5.1,10.3-2.5,15.4c1.7,3.5,18.8,34,78.6,34c57.7,0,87.5-52.3,91.5-59.9l52.9-79.4
				c0.3-0.5,0.6-0.9,0.8-1.4c0.2-0.5,23.8-46,94.7-46c136.5,0,146.7,84.5,146.7,213.3c0,89.1-30.9,240-146.7,240
				c-118.4,0-120-198-120-200c0-7.4-6-13.3-13.3-13.3h0c-7.4,0-13.3,6-13.3,13.3c0,9.3,1.7,226.7,146.7,226.7
				C746.4,746.7,800,612.7,800,480C800,348.7,786.9,240,626.7,240z"/>
			<path class="st0" d="M533.3,226.7c138.1,0,194.7-68.7,197.1-71.7c3.9-4.9,3.9-11.8,0-16.7l-53.3-66.7c-2.2-2.8-5.5-4.6-9.1-4.9
				c-3.5-0.4-7.1,0.7-9.9,3c-0.7,0.6-77.1,63.6-151.5,63.6c-71.3,0-107.4-45.1-135.6-87.4c-3.4-5.1-9.7-7.2-15.5-5.2
				c-5.7,2-9.4,7.6-8.9,13.7C346.9,56.2,363,226.7,533.3,226.7z M506.7,160c67.1,0,132.6-42.9,157.8-61.4l37.7,47.2
				c-18.2,16.4-70.9,54.3-168.8,54.3c-82.8,0-123-45.9-142.4-86.5C417,138.4,453.7,160,506.7,160z"/>
		</g>
	</g>
</g>
</svg>
